<?xml version="1.0" standalone="no"?>
<!DOCTYPE svg PUBLIC "-//W3C//DTD SVG 20010904//EN"
 "http://www.w3.org/TR/2001/REC-SVG-20010904/DTD/svg10.dtd">
<svg version="1.0" xmlns="http://www.w3.org/2000/svg"
 width="512.000000pt" height="512.000000pt" viewBox="0 0 512.000000 512.000000"
 preserveAspectRatio="xMidYMid meet">
<metadata>
Created by potrace 1.14, written by Peter Selinger 2001-2017
</metadata>
<g transform="translate(0.000000,512.000000) scale(0.100000,-0.100000)"
fill="#000000" stroke="none">
<path d="M2344 4811 c-4 -4 -30 -7 -116 -14 -10 -1 -18 -4 -18 -7 0 -3 -12 -5
-27 -5 -16 -1 -48 -5 -73 -9 -25 -4 -53 -8 -62 -8 -10 1 -18 -4 -18 -10 0 -6
-3 -9 -6 -6 -3 4 -20 2 -37 -3 -18 -6 -43 -12 -57 -15 -13 -3 -29 -9 -36 -15
-6 -5 -14 -6 -17 -2 -4 3 -13 0 -22 -7 -8 -7 -21 -10 -29 -7 -8 3 -17 -1 -20
-9 -3 -9 -10 -13 -15 -10 -4 3 -26 -3 -47 -13 -22 -11 -48 -21 -59 -23 -11 -1
-22 -5 -25 -8 -13 -14 -129 -66 -124 -56 3 6 -1 3 -9 -6 -8 -10 -17 -15 -20
-11 -4 3 -7 0 -7 -7 0 -7 -3 -11 -6 -7 -4 3 -12 1 -20 -6 -32 -29 -40 -33 -52
-29 -6 2 -12 -2 -12 -9 0 -7 -3 -10 -6 -6 -4 3 -12 1 -20 -6 -34 -30 -44 -37
-44 -30 0 4 -5 0 -11 -9 -5 -10 -17 -18 -24 -18 -8 0 -15 -4 -15 -8 0 -10 -62
-47 -73 -44 -5 1 -6 -2 -2 -8 3 -5 3 -10 -2 -10 -4 0 -20 -10 -35 -23 -15 -12
-43 -35 -64 -52 -20 -16 -67 -59 -103 -95 -36 -35 -70 -63 -74 -62 -5 1 -6 -2
-2 -7 3 -6 -4 -15 -16 -21 -11 -7 -18 -14 -15 -18 3 -3 -6 -14 -21 -24 -16
-10 -24 -18 -18 -18 5 0 -5 -13 -22 -29 -18 -16 -30 -31 -28 -33 3 -2 -9 -19
-25 -37 -17 -18 -30 -36 -30 -42 0 -5 -4 -9 -10 -9 -5 0 -10 -5 -10 -11 0 -7
-8 -18 -18 -25 -19 -15 -17 -15 56 -17 15 -1 30 -6 34 -12 5 -7 8 -7 8 0 0 14
130 14 130 0 0 -7 3 -7 8 0 4 6 25 11 47 11 22 0 43 -5 47 -11 5 -7 8 -7 8 0
0 12 119 14 138 2 7 -5 12 -4 12 3 0 6 9 4 23 -5 13 -8 27 -12 30 -8 4 3 7 -3
7 -14 0 -11 3 -23 7 -27 7 -7 11 -21 17 -64 1 -12 6 -25 9 -29 4 -3 7 -16 7
-27 0 -12 9 -45 19 -74 11 -29 15 -49 9 -46 -6 4 -5 -2 1 -15 7 -11 9 -21 5
-21 -3 0 -1 -6 5 -14 9 -10 8 -15 -2 -19 -8 -3 -196 -5 -420 -5 -223 0 -410
-3 -416 -7 -6 -3 -11 -12 -11 -19 0 -8 -7 -19 -15 -26 -8 -7 -12 -16 -9 -21 3
-5 -1 -23 -10 -39 -9 -20 -10 -28 -3 -24 8 5 8 3 0 -7 -27 -28 -14 -37 57 -41
39 -2 70 0 70 4 0 4 6 5 14 2 18 -7 106 -10 106 -4 0 3 32 3 70 0 39 -3 70 -2
70 1 0 3 18 3 40 -1 22 -4 40 -4 40 -1 0 3 32 4 70 1 39 -3 70 -2 70 2 0 3 14
3 30 -2 17 -5 30 -5 30 0 0 5 13 5 30 0 17 -5 30 -6 30 -2 0 4 45 5 100 2 55
-3 100 -2 100 2 0 4 12 3 28 -1 15 -4 39 -4 55 0 16 4 25 4 21 -2 -3 -5 3 -9
14 -9 11 0 35 -11 55 -24 19 -13 38 -22 41 -18 3 3 6 0 6 -5 0 -6 19 -31 43
-56 48 -51 77 -85 77 -92 0 -5 33 -45 58 -71 7 -8 11 -14 7 -14 -6 0 6 -16 43
-55 13 -14 20 -25 16 -25 -4 0 3 -8 14 -19 12 -10 22 -22 22 -27 0 -5 14 -23
30 -41 17 -18 30 -36 30 -41 0 -6 7 -13 16 -16 8 -3 13 -10 10 -14 -3 -5 4
-15 15 -22 10 -8 19 -20 19 -27 0 -7 5 -13 10 -13 6 0 10 -7 10 -15 0 -8 9
-19 20 -25 11 -6 20 -16 20 -23 0 -7 8 -20 18 -28 9 -9 24 -26 32 -39 8 -12
24 -32 35 -43 11 -11 13 -16 5 -12 -8 4 -6 -1 5 -12 11 -11 24 -18 29 -15 5 3
6 0 2 -7 -5 -7 1 -20 13 -30 11 -10 18 -21 14 -24 -3 -4 2 -9 11 -13 9 -3 16
-12 16 -20 0 -7 9 -18 20 -24 11 -6 20 -8 20 -5 0 3 9 1 20 -5 11 -6 20 -7 20
-2 0 10 30 9 48 -2 6 -4 12 -3 12 2 0 13 33 10 43 -3 5 -7 10 -7 15 0 8 12 32
13 50 2 6 -5 12 -4 12 0 0 5 9 9 20 9 11 0 20 -4 20 -8 0 -5 9 -4 20 2 14 8
20 8 20 0 0 -6 5 -8 11 -5 16 10 69 12 69 3 0 -4 5 -8 11 -8 5 0 8 4 5 8 -6
10 25 9 42 -2 6 -4 12 -3 12 3 0 10 19 9 38 -2 6 -5 12 -4 12 0 0 5 9 9 20 9
11 0 20 -4 20 -8 0 -4 5 -8 11 -8 5 0 8 3 6 8 -3 4 19 7 49 7 30 0 54 -4 54
-9 0 -4 6 -4 13 3 10 8 17 7 25 -1 7 -7 12 -8 12 -2 0 6 7 11 15 11 8 0 15 -5
15 -10 0 -5 5 -5 13 1 7 6 18 7 27 2 7 -4 24 -4 37 1 15 5 23 5 23 -2 0 -6 7
-6 20 1 11 6 20 7 20 2 0 -7 32 -12 88 -15 6 0 12 -3 12 -6 0 -6 29 -12 72
-14 9 -1 15 -3 12 -6 -3 -3 16 -13 41 -23 47 -18 58 -26 101 -65 14 -13 29
-23 34 -23 6 0 10 -4 10 -9 0 -5 16 -26 35 -47 19 -22 35 -44 35 -50 0 -6 10
-24 22 -40 13 -15 17 -25 11 -21 -8 5 -7 -2 2 -20 22 -41 38 -86 36 -100 -1
-7 3 -13 9 -13 5 0 10 -5 10 -11 0 -5 -5 -7 -11 -3 -7 4 -6 -3 2 -17 12 -23
21 -68 22 -116 1 -13 5 -23 9 -23 5 0 4 -9 -2 -20 -6 -11 -7 -20 -3 -20 4 0 9
-69 11 -154 3 -123 0 -163 -14 -205 -9 -29 -19 -49 -22 -46 -3 2 -11 -4 -19
-15 -8 -11 -21 -20 -29 -20 -8 0 -13 -3 -11 -7 3 -5 -45 -7 -106 -6 -152 2
-149 2 -142 13 3 5 2 10 -3 10 -5 0 -9 13 -9 30 0 18 4 27 11 23 6 -4 5 1 -2
10 -8 9 -11 21 -7 27 3 5 1 10 -6 10 -10 0 -10 3 -1 12 8 8 8 19 -3 45 -9 21
-10 33 -3 33 7 0 7 4 -1 13 -6 8 -13 24 -15 38 -3 13 -5 26 -6 29 -1 3 -3 10
-4 15 -1 6 -7 22 -14 38 -35 83 -54 117 -63 117 -6 0 -8 4 -5 9 6 9 -39 71
-74 101 -11 9 -17 20 -13 24 3 3 -1 6 -10 6 -9 0 -21 9 -27 20 -6 11 -15 20
-20 20 -6 0 -20 9 -32 20 -13 10 -27 19 -31 19 -5 0 -16 8 -25 18 -9 10 -26
19 -36 21 -11 2 -29 10 -41 18 -12 8 -25 11 -28 7 -4 -3 -7 -1 -7 6 0 7 -4 9
-10 6 -5 -3 -10 -1 -10 5 0 6 -4 8 -10 5 -5 -3 -16 -3 -22 2 -15 9 -20 10 -68
18 -19 3 -46 9 -60 13 -14 4 -42 7 -62 7 -21 -1 -38 4 -38 10 0 5 -4 4 -9 -4
-5 -8 -11 -9 -15 -3 -3 6 -20 7 -41 2 -21 -5 -35 -4 -35 2 0 5 -4 7 -9 3 -6
-3 -34 -7 -63 -10 -29 -2 -53 -5 -53 -6 0 -1 -9 -3 -20 -5 -11 -1 -33 -6 -50
-10 -16 -4 -38 -7 -47 -8 -10 0 -18 -4 -18 -8 0 -4 -8 -8 -18 -8 -10 0 -28 -7
-40 -16 -12 -8 -22 -12 -22 -9 0 3 -10 0 -22 -7 -13 -7 -26 -11 -30 -10 -5 1
-8 -3 -8 -9 0 -5 -4 -8 -9 -5 -5 3 -12 -1 -15 -10 -3 -8 -10 -12 -16 -9 -5 3
-10 1 -10 -4 0 -6 -7 -11 -16 -11 -8 0 -12 -4 -9 -10 5 -9 2 -11 -20 -10 -11
1 -132 -125 -128 -132 2 -5 -1 -8 -6 -8 -6 0 -11 -7 -11 -15 0 -8 -4 -15 -8
-15 -10 0 -58 -91 -54 -102 1 -5 -3 -8 -9 -8 -5 0 -7 -4 -4 -10 3 -5 1 -10 -5
-10 -6 0 -8 -4 -5 -10 3 -5 0 -20 -7 -32 -7 -13 -11 -27 -10 -32 2 -4 -1 -13
-6 -20 -4 -6 -9 -24 -11 -41 -1 -16 -7 -34 -11 -39 -5 -5 -5 -19 0 -31 5 -13
6 -26 3 -29 -3 -3 -7 -28 -9 -55 -1 -28 -4 -54 -7 -58 -3 -4 -208 -8 -455 -7
-410 1 -450 0 -444 -15 9 -24 29 -41 37 -33 5 4 5 2 2 -5 -4 -6 4 -20 18 -31
13 -11 21 -22 18 -26 -3 -3 1 -6 11 -6 9 0 14 -4 11 -10 -3 -5 1 -10 9 -10 9
0 16 -4 16 -9 0 -9 48 -57 135 -135 22 -19 46 -36 54 -36 8 0 12 -3 8 -6 -3
-4 22 -27 56 -52 34 -25 65 -50 69 -56 4 -6 8 -7 8 -3 0 4 15 -3 33 -17 19
-15 39 -26 45 -26 7 0 12 -4 12 -10 0 -5 9 -10 21 -10 11 0 18 -4 15 -8 -3 -5
10 -15 29 -22 19 -8 35 -18 35 -22 0 -5 4 -7 9 -3 5 3 16 -2 24 -10 9 -8 20
-15 24 -15 5 0 31 -11 59 -24 63 -32 107 -50 117 -48 4 1 7 -3 7 -9 0 -5 4 -8
10 -4 5 3 17 2 27 -3 50 -26 190 -72 218 -72 8 0 15 -3 15 -8 0 -4 15 -8 33
-9 54 -3 77 -7 77 -14 0 -4 14 -6 30 -5 17 1 30 -1 30 -4 0 -4 16 -6 35 -5 19
0 35 -2 35 -5 0 -5 74 -11 148 -13 12 -1 22 -3 22 -6 0 -11 276 -1 395 14 122
16 160 22 160 25 0 2 14 5 65 14 39 8 34 6 115 31 33 11 62 20 65 20 50 14 67
19 75 24 6 3 16 6 24 8 8 1 17 7 21 13 4 7 10 11 14 11 18 -2 66 13 66 20 0 5
8 9 18 9 10 0 28 7 40 16 12 8 22 12 22 7 0 -4 4 -3 8 2 4 6 32 23 62 37 71
36 114 61 118 71 2 4 8 7 14 7 6 0 26 11 44 25 18 14 36 25 39 25 4 0 12 6 20
13 7 6 26 21 41 32 16 11 39 31 53 45 13 14 21 18 17 10 -5 -9 -2 -8 7 3 8 9
17 17 20 17 3 0 24 18 46 39 22 21 41 38 43 37 2 -1 37 33 79 76 42 43 74 78
71 78 -3 0 6 10 19 23 13 12 35 38 49 56 14 19 30 39 35 45 22 24 66 86 61 86
-4 0 3 9 14 20 12 12 25 31 30 43 14 30 33 61 45 69 6 4 10 11 11 15 2 16 18
48 31 61 7 8 11 18 8 23 -4 5 -1 9 6 9 7 0 10 3 6 6 -3 4 1 13 9 21 8 8 12 19
9 24 -4 5 -1 9 4 9 6 0 11 7 11 15 0 8 5 15 10 15 6 0 10 9 10 19 0 11 5 23
11 26 6 4 8 13 5 21 -3 8 -1 14 4 14 6 0 10 11 10 25 0 14 4 25 9 25 9 0 27
57 23 73 -1 4 3 7 9 7 5 0 8 4 5 8 -3 5 1 20 9 35 7 14 11 28 8 31 -3 3 -1 11
5 19 6 7 13 26 16 42 2 17 5 31 6 33 2 1 3 10 4 20 1 9 4 22 7 27 8 13 18 58
24 110 3 22 8 63 12 90 3 28 7 60 7 73 1 12 4 22 7 22 8 0 5 32 -4 47 -4 6 -3
14 1 17 12 7 12 228 0 243 -5 6 -5 14 0 17 7 4 9 71 2 71 -2 0 -10 55 -14 110
-3 28 -5 50 -6 50 -3 0 -10 41 -12 70 -1 17 -5 35 -9 41 -5 6 -9 25 -11 42 -1
18 -5 32 -8 32 -3 0 -7 10 -8 23 -3 27 -7 47 -15 67 -15 39 -31 96 -29 103 1
4 -2 7 -8 7 -5 0 -10 9 -10 20 0 11 -4 28 -9 38 -5 9 -16 32 -23 50 -7 17 -16
32 -20 32 -5 0 -8 8 -8 18 0 9 -9 32 -20 50 -11 18 -20 39 -20 47 0 8 -4 15
-10 15 -5 0 -10 9 -10 21 0 11 -4 17 -10 14 -5 -3 -10 3 -10 14 0 12 -3 21 -8
21 -4 0 -15 18 -25 40 -9 22 -21 40 -27 40 -5 0 -9 3 -8 8 3 10 -42 77 -78
116 -6 6 -11 16 -12 21 -2 11 -53 74 -95 117 -15 15 -24 28 -20 28 4 0 -3 7
-15 16 -12 8 -19 21 -16 27 4 7 4 9 -1 5 -4 -4 -41 26 -81 67 -41 41 -76 75
-79 75 -3 0 -24 18 -47 40 -24 22 -48 40 -53 40 -6 0 -17 9 -25 20 -8 11 -19
20 -25 20 -6 0 -18 9 -28 20 -9 11 -24 20 -32 20 -9 0 -13 5 -10 10 3 6 1 10
-5 10 -6 0 -37 17 -68 38 -31 20 -79 48 -107 62 -27 14 -52 28 -53 33 -2 4 -8
5 -13 1 -5 -3 -9 0 -9 6 0 6 -4 8 -10 5 -5 -3 -10 -2 -10 4 0 5 -13 12 -30 16
-16 4 -30 11 -30 17 0 6 -3 8 -7 5 -3 -4 -16 0 -29 8 -12 8 -33 16 -46 19 -36
7 -58 17 -53 26 2 4 -7 5 -20 2 -14 -2 -25 0 -25 5 0 5 -12 10 -26 11 -15 1
-33 7 -40 13 -8 6 -21 9 -29 5 -9 -3 -18 0 -21 8 -3 8 -14 12 -25 9 -10 -3
-19 -1 -19 5 0 6 -9 8 -20 5 -11 -3 -20 -1 -20 5 0 5 -13 8 -30 7 -16 -1 -30
2 -30 7 0 5 -6 8 -12 5 -7 -2 -21 0 -32 5 -14 7 -16 7 -11 -2 6 -9 2 -9 -15 0
-12 6 -24 10 -26 7 -3 -3 -22 -1 -42 4 -20 5 -62 12 -92 15 -66 7 -410 11
-416 5z m368 -2956 c17 -3 36 -9 42 -13 6 -3 20 -8 31 -9 11 -2 22 -8 23 -13
2 -6 10 -10 17 -10 23 0 105 -60 169 -124 34 -33 59 -61 58 -61 -2 0 2 -12 9
-27 6 -15 16 -25 21 -22 5 3 8 2 7 -3 -1 -4 0 -10 1 -13 1 -3 3 -14 5 -25 2
-11 8 -21 14 -23 5 -2 7 -10 4 -18 -3 -8 -1 -14 5 -14 6 0 9 -11 7 -25 -1 -14
1 -25 6 -25 4 0 6 -9 4 -20 -2 -11 0 -20 5 -20 9 0 6 -168 -4 -215 -12 -52
-29 -99 -45 -125 -9 -13 -15 -25 -13 -27 5 -7 1 -26 -5 -20 -6 6 -19 -12 -39
-52 -9 -18 -104 -115 -104 -106 0 3 -10 -4 -22 -17 -20 -20 -109 -69 -124 -67
-3 0 -16 -7 -30 -15 -18 -12 -24 -13 -24 -4 0 10 -3 9 -9 -1 -5 -8 -27 -14
-50 -15 -22 -1 -41 -3 -41 -6 0 -3 -25 -6 -55 -6 -31 0 -55 4 -55 10 0 6 -5 5
-12 -2 -7 -7 -17 -8 -30 -1 -10 5 -18 7 -18 5 0 -3 -18 1 -39 9 -22 7 -42 11
-45 8 -3 -4 -6 -1 -6 6 0 8 -7 11 -15 7 -8 -3 -15 0 -15 6 0 6 -3 9 -6 5 -4
-3 -31 9 -60 28 -30 19 -59 35 -65 35 -6 0 -7 4 -4 10 3 6 2 10 -4 10 -13 0
-91 78 -91 91 0 5 -4 9 -8 9 -9 0 -47 62 -44 73 1 4 -3 7 -9 7 -5 0 -7 5 -4
10 3 6 2 10 -3 10 -9 0 -25 37 -23 52 0 4 -4 20 -11 35 -13 32 -16 45 -22 95
-2 20 -7 42 -11 47 -3 6 -3 11 2 11 4 0 9 24 11 53 3 64 4 69 26 140 10 31 23
57 27 57 5 0 8 3 7 8 -3 15 22 63 37 68 8 3 13 10 10 14 -8 13 123 140 145
140 6 0 10 4 10 8 0 11 120 66 143 65 9 0 17 4 17 9 0 6 7 8 15 5 8 -4 17 -2
20 4 4 5 10 7 14 5 4 -3 29 -2 57 2 44 7 105 3 196 -13z"/>
</g>
</svg>
